<svg xmlns="http://www.w3.org/2000/svg" viewBox="0 0 366.77 74.05"><title>Asset 2</title><g id="fd3af145-8e13-4031-b264-8f93045f2cbd" data-name="Layer 2"><g id="d6d4c823-6bc4-46d7-b789-631dbc37ef42" data-name="Layer 1"><path d="M161.07,31.56c.44-.45.92-.87,1.32-1.36.56-.68.57-1.32-.41-1.76l.9-1.09c-1-1-1.68-.63-2.43.19-1.05,1.15-2.19,2.23-3.3,3.33a1.77,1.77,0,0,1-.88.52c.5-.94,1-1.89,1.49-2.83.29-.55.75-1.11-.24-1.33l1.87-2.57-2.51-.25,1.67-1.78-.14-.25-1.24.24.57-1.6-2.21.37c1.51-1.43,3.41-1.37,5-2.09l-1.46.07,0-.14,1.39-.63-.08-.38a27.12,27.12,0,0,0-3.2.45,14.47,14.47,0,0,1-6.68-.09,5.07,5.07,0,0,0-1.47.21l3.76-2.54L151.74,16l.32-.59-3.81.22,0-.26,1-.45-.07-.29-2.24.65-1.59-2.74.9-.49-2-.33,0-.19,2.24-.72-.09-.39h-1.43s0-.39-.06-.47l1.81-.54c-1.94-.8-3.42,1.1-5.3.55a4,4,0,0,1,1.2-.67c1.57-.24,3.16-.34,4.74-.56a11.24,11.24,0,0,0,2.87-.79c-2.21-.06-4.48,1.35-6.58-.51H146s0,0,0-.06l-1-.42,2.23-.15,0-.17-.95-.09c-.82-.07-1.64-.19-2.46-.2a9.36,9.36,0,0,0-1.61.24c-.64.11-1.28.27-1.93.33-1.31.14-2.62.23-3.93.34L136.33,7l3.11-.65-.63-.42,2.24-.64c-.92-.91-2-.43-2.91-.56-1.43-.21-2.87-.39-4.31-.58l0-.28c.56,0,1.21-.08,1.21-.08V3.63l-1-.16V3.25l6.36-.44,0-.38h-4.33l0-.23c1.42-.18,2.84-.44,4.26-.53s2.87,0,4.31-.25a17.12,17.12,0,0,0-6.27.07l-.06-.33c1.24-.29,2.46-.68,3.71-.86a24,24,0,0,1,8.32.14c5.82,1.19,11.77,1.81,17.43,3.72,4,1.37,8.12,2.69,12.15,4.09,2.54.88,5.06,1.87,6.93,3.93a3,3,0,0,1,.76,1.48c.36,2.44.62,4.9.94,7.57a6.3,6.3,0,0,0,.76-.54,16,16,0,0,0,1.23-1.36c2.18-2.85,5-2.46,7.84-1.47a1.48,1.48,0,0,1,.77.47c.68,1.13,1.89,1.11,2.94,1.52,1.44.56,2.79,1.32,4.18,2l-.06.43a4.14,4.14,0,0,1-1,.23A11.43,11.43,0,0,0,195.37,27a10,10,0,0,0-2,4.94,4.44,4.44,0,0,1-.47,1.44c-1.36,2.52-2.68,5.07-4.2,7.48a23.76,23.76,0,0,1-2.76,2.83,25.16,25.16,0,0,0-1.6,2.19l1.28,1.38a2.07,2.07,0,0,1,.26,2.5,11.24,11.24,0,0,1-1.71,1.74c-.13-.83-.13-.83.81-2-1.31.26-1.64.71-1.41,1.93a2.14,2.14,0,0,1-1.65,2.35c-.07,0-.18,0-.2,0a12.9,12.9,0,0,1-1.35-2.25c-.09-.23.54-1,.91-1.08,1.17-.18,1.29-.76.93-1.69a2,2,0,0,1-.07-.3c-.35-1.6-1-2-2.63-1.75-.54.1-1.07.25-1.57.37.2-1.21.11-1.32-1.25-1.35-.06.2-.12.42-.19.64s-.16.44-.33.89l-1.32-.67c-.62-.14-1.14.08-1.13.91a.48.48,0,0,1-.11.3l-4,4a1.22,1.22,0,0,1-.38.24A8,8,0,0,0,165,55.9c-.7,1.49-2.19,1.86-3.45,2.66l1-2a21.68,21.68,0,0,1-3.29,3.33c-1.14.74-2.34,1.81-4.07,1.41-.85.46-1.35,2.08-3.07,1.23l-2.48,2.71-.21-.12,1-2.15-3,1.71,1.36-2.87-.36-.23-1.63,2.09-.43-.39c.53-.61,1-1.22,1.58-1.81,1.17-1.31,2.38-2.58,3.51-3.93.55-.66.85-1.54,1.44-2.14A18.29,18.29,0,0,1,155,53.73c.54-.4,1-.84,1.57-1.26l-.13-.21-1.71,1.12-.28-.29a7.16,7.16,0,0,1,1.09-1.25,3.78,3.78,0,0,0,1.74-2.24c.1-.42.56-.75.81-1.15.42-.64.74-1.35,1.21-1.95,1-1.21,1.93-2.41,3-3.54a68,68,0,0,0,5.83-7.15c.07-.1.09-.24,0-.52a3.49,3.49,0,0,0-.57.48c-1.26,1.6-2.46,3.24-3.79,4.78a2.89,2.89,0,0,1-1.59.56c-.15,0-.37-.37-.53-.55l3.9-6.29-.32-.22-3.34,4.42-.29-.19c.6-1.22,1.18-2.46,1.79-3.67.27-.53.86-1-.12-1.45-.13-.06-.12-.41-.2-.73-.66,0-1.35,0-2,0-.18,0-.33-.28-.5-.43l.57-.47c.85.75,1.92.48,2.94-1Zm8,2.73c-1.21.06-1.36,1.08-1.84,1.78C167.9,35.57,169.08,35.6,169.07,34.29Zm-15.4,23.45c-.73-.41-2,.44-2.7,1.77Zm27.27-6.49.38-1.28L180,49.83l0,.29Zm2.4-5.13v-.32l-1.6-.28L182,47ZM151.22,13.25l.06.4,2.81-.68L154,12.6ZM165,18.17l0,.26,2.79-.16,0-.33Z" transform="translate(-1.18)"/><path d="M177,73.68c-.39,0-.78,0-1.18-.07s-.74-.07-1.11-.07h-.84c-.73,0-1.48-.06-2.19-.11l-1.17-.08h-.09l-.15-.07-.38-.21.05-.1-.28,0a2.91,2.91,0,0,1-1-.23l-.35-.12h-.08a1.69,1.69,0,0,0-.41.06l-.35.07-.68.09.29-.62a1.7,1.7,0,0,1,.66-.73,4.44,4.44,0,0,1,2.44-.65,7.87,7.87,0,0,1,1.07.08l.4,0a4.72,4.72,0,0,0,2.81-1.29,14.22,14.22,0,0,0,1.82-1.75l.68-.73a2.36,2.36,0,0,0,.72-1.83,4.19,4.19,0,0,0-1.75-3.43,9,9,0,0,0-.8-.51c-.24-.14-.47-.28-.7-.43l-.32-.23A3.07,3.07,0,0,0,172,60l-.13-.37V60a2.07,2.07,0,0,1-1.62-.81,6,6,0,0,0-1.82-1.35,6.67,6.67,0,0,1-2.28-1.8,13,13,0,0,1-1.26-2.37,11.59,11.59,0,0,0-1.28-2.37,5.9,5.9,0,0,1-.59-1l-.3,1.1-.35-1.75-.33.51-.08-1.53-.1-.13-.1-.11a1,1,0,0,1-.29-.45l-.09-.34a18,18,0,0,1-.44-2,6.92,6.92,0,0,1,.57-4.22,13.15,13.15,0,0,1,3.86-4.51,5.55,5.55,0,0,1,3.5-1.16,7.83,7.83,0,0,1,.92.06l3.24.41,2.18.28c.17,0,.35,0,.53,0a3.4,3.4,0,0,1,1.11.16,8.93,8.93,0,0,1,1.85,1,3.33,3.33,0,0,1,1.5,2.28l.07.43h-1.13c-1.25.23-2.51.48-3.75.74l-.24,0a2.07,2.07,0,0,0-.71.22h.06l1.57.36c1.14.26,2.32.53,3.46.88s2.27.76,3.36,1.15,2,.72,3,1,2,.54,3,.77l.93.21c.42.1.84.17,1.27.25a16.16,16.16,0,0,1,2.41.57c1.65.57,3.28,1.28,4.86,2l.54.23a17.81,17.81,0,0,1,1.6.83l.8.44.54.29-1,.71h0a5,5,0,0,0,1.23.36c1,.1,1.93.16,2.9.22s1.94.13,2.9.22l.26,0a6.38,6.38,0,0,1,2.71.67,5.26,5.26,0,0,0,1.41.54,6.65,6.65,0,0,1,1.31.47l.18.08a2,2,0,0,1,.38.19c.18.12.34.25.52.4l.61.49L215,55l1.56.61-.88.52a3.31,3.31,0,0,1-.36.2,5.65,5.65,0,0,1-.77.3,24,24,0,0,1-6.59.92,25.32,25.32,0,0,1-3-.18,27.36,27.36,0,0,1-6.57,1.1h-.09l-.07.09a.84.84,0,0,1-.46.38c-.37.09-.75.17-1.13.25l-.95.2a1.1,1.1,0,0,0-.24.1l.09.21-.52.11H193.6l.13.23-.57.08-.75.06h0l-1,.29.58,1-.48.2.5.23-.47.54-.34.1-.24,0,0,.18-1,.16,2.26,1.54-1.38-.09-.4,0-.22,0a2.94,2.94,0,0,1-1.13.23,5.47,5.47,0,0,1-2-.5l-.16-.06a2.83,2.83,0,0,0-.6-.15l1.28,1.55-1.33-.5c-.21-.08-.41-.17-.61-.26a3.45,3.45,0,0,0-1.4-.41h-.07A4,4,0,0,1,184.1,67l-.19.6-.17.12a1.83,1.83,0,0,0-.4.39,1.69,1.69,0,0,1-1.13.72l-2.44,2.81c.21.06.43.1.65.14a3.78,3.78,0,0,1,2.12.92l.66.64h-4.59A3.83,3.83,0,0,1,177,73.68Zm-.85-2.89.22,0a2.05,2.05,0,0,0,1.76-.94c.28-.39.59-.76.9-1.12s.65-.78.94-1.2a2.74,2.74,0,0,0,.24-.42,1.13,1.13,0,0,1-.57.15h-.07l-.72.71c-.89.87-1.77,1.75-2.64,2.64A.43.43,0,0,0,176.12,70.79Z" transform="translate(-1.18)"/><path d="M168.85,36.07a7.43,7.43,0,0,1,.87.05c1.81.21,3.61.47,5.41.7a7.11,7.11,0,0,1,1.56.17,8.69,8.69,0,0,1,1.77,1,3,3,0,0,1,1.34,2h-.5L179,40c-1.26.23-2.51.48-3.76.74-.58.12-1.23.14-1.51.84l.6.17c1.67.41,3.37.73,5,1.24,2.14.66,4.22,1.51,6.35,2.19,1.3.41,2.66.68,4,1a34.56,34.56,0,0,1,3.64.81c1.82.63,3.6,1.42,5.37,2.19.77.34,1.5.79,2.37,1.25L200,51.2a10.73,10.73,0,0,0,2,.63c1.93.2,3.88.25,5.81.45a6.76,6.76,0,0,1,2.81.64c.88.55,1.88.57,2.75,1a5.35,5.35,0,0,1,.53.25c.24.16.46.35.73.57l-.44.33,1.47.58c-.25.15-.39.25-.54.32a5.24,5.24,0,0,1-.72.29,23.47,23.47,0,0,1-6.49.91,24.91,24.91,0,0,1-3-.18h-.08a27.68,27.68,0,0,1-6.54,1.1H198c-.22.25-.31.46-.44.49-.69.17-1.39.29-2.08.45a3.34,3.34,0,0,0-.63.3l.05.11h-2l.18.31-1.39.12.07.11-1,.28.61,1-.59.25-.11.18.66.31-.13.14-.8-.15.08.35-1.52.25,1.9,1.29c-.28,0-.49-.07-.65-.07a.41.41,0,0,0-.16,0,2.42,2.42,0,0,1-1,.2,5.68,5.68,0,0,1-2-.54,9,9,0,0,0-1.65-.3l1,1.2a6.08,6.08,0,0,0-2.14-.69,2.33,2.33,0,0,0-.64.09c.8,1.27.23,2.41-.12,3.56a.09.09,0,0,1,0,0c-.52.31-.74,1.07-1.48,1.07h0l-2.9,3.35c1,.48,2.21.25,3.15,1.17h-3.67l-.08,0a3.76,3.76,0,0,1-1.55.29c-.76,0-1.52-.14-2.28-.14h-.84c-1.11,0-2.23-.13-3.35-.19,0,0-.07,0-.15-.07l.32-.42c-.14,0-.26-.07-.35-.07l-.07,0a1.21,1.21,0,0,1-.62.17,4.6,4.6,0,0,1-1.24-.33.7.7,0,0,0-.2,0,6.65,6.65,0,0,0-.8.14,1.31,1.31,0,0,1,.52-.57,4.1,4.1,0,0,1,2.24-.59,7.52,7.52,0,0,1,1,.08,3.33,3.33,0,0,0,.45,0A5.11,5.11,0,0,0,174.68,70a23.39,23.39,0,0,0,2.53-2.5,2.75,2.75,0,0,0,.82-2.1,4.58,4.58,0,0,0-1.9-3.72c-.48-.35-1-.62-1.51-1A3.88,3.88,0,0,0,172,59.63h-.12a1.69,1.69,0,0,1-1.33-.67c-1-1.32-3-1.65-4.09-3.14s-1.44-3.3-2.55-4.75a12.82,12.82,0,0,1-1-1.84l-.15.53-.22-1.1-.2.31-.06-1.12-.14.41c-.11-.14-.28-.26-.32-.42a21.3,21.3,0,0,1-.52-2.32,6.58,6.58,0,0,1,.53-4,12.8,12.8,0,0,1,3.76-4.38,5.2,5.2,0,0,1,3.27-1.08m10.76,30.86-.16,0h0c-.06,0-.13.09-.19.15-1.12,1.1-2.24,2.2-3.33,3.32a2,2,0,0,0-.27.68,3.5,3.5,0,0,0,.69.14h0a2.43,2.43,0,0,0,2.06-1.09c.58-.8,1.27-1.52,1.84-2.32a8.81,8.81,0,0,0,.69-1.45l-.21-.07c-.38.2-.62.66-1.11.66M168.86,35.32h0a5.92,5.92,0,0,0-3.73,1.24,13.5,13.5,0,0,0-4,4.64,7.28,7.28,0,0,0-.61,4.44,18.2,18.2,0,0,0,.45,2.06l.09.34a1.39,1.39,0,0,0,.39.62l.07.08,0,0V49l.12,2.31.45-.7.47,2.39.48-1.75.18.25a11.27,11.27,0,0,1,1.24,2.3,13.28,13.28,0,0,0,1.3,2.44,7.06,7.06,0,0,0,2.4,1.9,5.76,5.76,0,0,1,1.71,1.26,2.45,2.45,0,0,0,1.92,1H172a2.7,2.7,0,0,1,1.88.69l.33.24c.23.16.48.3.72.45a8.75,8.75,0,0,1,.77.49,3.84,3.84,0,0,1,1.6,3.14,2,2,0,0,1-.61,1.55l-.69.73a13.71,13.71,0,0,1-1.75,1.69,4.49,4.49,0,0,1-2.6,1.23l-.35,0a8.21,8.21,0,0,0-1.12-.08,4.8,4.8,0,0,0-2.63.71,2.06,2.06,0,0,0-.8.89l-.59,1.25,1.37-.18.39-.08a1.89,1.89,0,0,1,.31-.06l.32.11a3.44,3.44,0,0,0,1,.25l.49.23a1,1,0,0,0,.43.14l1.16.08c.72.05,1.47.11,2.22.11h.84c.34,0,.7,0,1.07.07s.8.08,1.21.08a4.51,4.51,0,0,0,1.75-.31h5.4l-1.32-1.29a4.09,4.09,0,0,0-2.31-1h0l1.93-2.23a2.15,2.15,0,0,0,1.23-.83,1.65,1.65,0,0,1,.31-.31.84.84,0,0,0,.38-.48l.15-.46a5,5,0,0,0,.35-2.6,5.51,5.51,0,0,1,.79.31c.21.09.41.19.63.27l2.65,1-1.37-1.66a4.74,4.74,0,0,0,1.65.35,3.18,3.18,0,0,0,1.18-.23l.12,0,.43,0,2.77.19-2.29-1.56L191,63l.42-.07v0l.13,0,.28-.32,0,0,.09-.1.67-.75-.19-.09.1,0-.44-.74-.11-.18h0l.48-.14.69-.06,1.18-.1-.12-.21h1.84l-.21-.47.75-.16c.38-.08.77-.16,1.15-.25a1.11,1.11,0,0,0,.62-.46,28.43,28.43,0,0,0,6.53-1.09,25.75,25.75,0,0,0,3,.18,24.33,24.33,0,0,0,6.7-.94,5.89,5.89,0,0,0,.82-.32,3.69,3.69,0,0,0,.4-.23l.21-.13,1.33-.78L215.93,55l-.22-.08.14-.11-.76-.6-.23-.18c-.19-.15-.36-.29-.55-.42a2.37,2.37,0,0,0-.44-.22l-.15-.07a6.94,6.94,0,0,0-1.38-.5,5,5,0,0,1-1.31-.5,6.65,6.65,0,0,0-2.87-.72l-.25,0c-1-.1-2-.16-2.92-.22s-1.93-.12-2.89-.22a2.54,2.54,0,0,1-.46-.1l.92-.64-1.08-.58-.79-.44a18.13,18.13,0,0,0-1.63-.84l-.54-.23c-1.58-.69-3.22-1.4-4.89-2a16.56,16.56,0,0,0-2.47-.59c-.42-.08-.84-.15-1.25-.25l-.94-.21c-1-.22-2-.45-3-.76s-2-.68-3-1-2.24-.81-3.38-1.16-2.34-.62-3.49-.88l-.12,0c1.13-.23,2.23-.44,3.18-.62h1.5l-.13-.86a3.69,3.69,0,0,0-1.66-2.53A9.34,9.34,0,0,0,177,36.28a3.74,3.74,0,0,0-1.23-.18c-.17,0-.33,0-.5,0l-2.2-.29-3.22-.41a8.22,8.22,0,0,0-1-.06Zm8.18,35,1.14-1.13-.37.48a1.88,1.88,0,0,1-.77.65Z" transform="translate(-1.18)" style="fill:#fff"/><path d="M1.91,30.91a1.76,1.76,0,0,1-.73,0c0-1.22.07-3.4.07-4.69s0-2.4-.07-3.68a1.76,1.76,0,0,1,.73,0l.31,2.29c2.4.14,5.52.17,8,.17s5.63-.07,8-.17l.31-2.29a1.75,1.75,0,0,1,.73,0c0,1.29-.07,2.36-.07,3.68s0,3.47.07,4.69a1.75,1.75,0,0,1-.73,0L18.2,27.2a52.09,52.09,0,0,0-6.15-.66c-.21,2.54-.28,4.79-.28,9.45a85.65,85.65,0,0,0,.35,10.14l3,.31a1.75,1.75,0,0,1,0,.73c-1.35,0-3.37-.07-4.76-.07s-3.75,0-5,.07a1.75,1.75,0,0,1,0-.73l3-.31c.24-2.67.35-5.52.35-10a89.92,89.92,0,0,0-.38-9.55,46.83,46.83,0,0,0-6,.59Z" transform="translate(-1.18)"/><path d="M29.94,47.17a1.75,1.75,0,0,1,0-.73L32,46.16A36.12,36.12,0,0,0,32.55,40,14.89,14.89,0,0,0,32,35.29a2.69,2.69,0,0,0-2.64-1.94,5.09,5.09,0,0,0-3.4,1.6v1.25a81.09,81.09,0,0,0,.38,10l2.19.28a1.77,1.77,0,0,1,0,.73c-1.39,0-2.12-.07-3.54-.07s-2.88,0-4.31.07a1.75,1.75,0,0,1,0-.73l2.29-.24a85,85,0,0,0,.42-10.07,76.75,76.75,0,0,0-.38-10.21c-.21-1.15-.49-2.08-1.46-2.08a2.74,2.74,0,0,0-1.08.28,2,2,0,0,1-.24-.8,20.81,20.81,0,0,1,4.45-.83c1.39,0,1.6.9,1.6,2.74S26,29,25.91,33.55c2-1.08,4.62-2.15,6.18-2.15s3.13,1,3.13,3.47c0,1.7,0,4,0,5.38a49.49,49.49,0,0,0,.28,5.9l2.43.28a1.77,1.77,0,0,1,0,.73c-1.39,0-2.26-.07-3.68-.07S31.36,47.13,29.94,47.17Z" transform="translate(-1.18)"/><path d="M51.51,44.08c-2,2.29-4,3.4-5.77,3.4a5.1,5.1,0,0,1-3.82-1.91,11.07,11.07,0,0,1-2.71-7,6.51,6.51,0,0,1,2.64-5.35,8.69,8.69,0,0,1,4.83-2,4.06,4.06,0,0,1,3.85,4.24c0,2.22-1.74,3.37-8.37,3.4a11.38,11.38,0,0,0,2.36,4.86,4.49,4.49,0,0,0,3.16,1.7c1,0,2-.49,3.37-1.84A1.21,1.21,0,0,1,51.51,44.08Zm-9.58-7.36A9.37,9.37,0,0,0,42,38.1c5-.28,5.83-.76,5.83-1.74a3.76,3.76,0,0,0-3.4-3.44C42.59,32.93,41.93,34.8,41.93,36.71Z" transform="translate(-1.18)"/><path d="M71.14,35.95a6.54,6.54,0,0,1,4.76,3.3,17.48,17.48,0,0,1,1.39,5.24c.52,3,1,5.73,4.06,7.22a1.29,1.29,0,0,1-.28.63c-3.16-1.11-4.76-4.06-6.29-7.33a34.18,34.18,0,0,0-3.33-6.15,5,5,0,0,0-4.17-2.36,4.85,4.85,0,0,0-1.49.21c0,4,.1,7.12.35,9.41l2.88.31a1.75,1.75,0,0,1,0,.73c-1.25,0-3.4-.07-4.65-.07s-3.47,0-4.62.07a1.75,1.75,0,0,1,0-.73l2.67-.31a85.41,85.41,0,0,0,.38-9.55,90.23,90.23,0,0,0-.45-10.8l-2.64-.35a1.76,1.76,0,0,1,0-.73c.21,0,4.51.1,4.79.1A15.93,15.93,0,0,1,69,24.18a10.39,10.39,0,0,1,5.83,1.49,5.28,5.28,0,0,1,2.5,4.27c0,1.84-1.11,3.47-3.13,4.69a11.14,11.14,0,0,1-3.06,1.25Zm1.25-2a5.26,5.26,0,0,0,1.32-3.61,4.76,4.76,0,0,0-1.49-3.65,5.92,5.92,0,0,0-4.13-1.39,6.16,6.16,0,0,0-2,.28c-.17,2-.28,5.28-.31,9.62a5.37,5.37,0,0,0,2.15.35A5.81,5.81,0,0,0,72.39,33.9Z" transform="translate(-1.18)"/><path d="M83.23,45.74a9.56,9.56,0,0,1-2.57-6.49,7.79,7.79,0,0,1,2.5-5.83,7.56,7.56,0,0,1,4.9-2.19,5.1,5.1,0,0,1,3.61,1.63,8.91,8.91,0,0,1,2.43,6,9.41,9.41,0,0,1-2.92,6.49,6.79,6.79,0,0,1-4.34,2.08A5.07,5.07,0,0,1,83.23,45.74Zm8.33-4.45a10.06,10.06,0,0,0-2-5.83,5,5,0,0,0-3.72-2.22c-1.94,0-2.67,1.74-2.67,3.79a10.74,10.74,0,0,0,2.33,6.46,4.54,4.54,0,0,0,3.3,1.91C90.66,45.4,91.56,43.55,91.56,41.3Z" transform="translate(-1.18)"/><path d="M98.82,45.74a9.56,9.56,0,0,1-2.57-6.49,7.79,7.79,0,0,1,2.5-5.83,7.56,7.56,0,0,1,4.9-2.19,5.1,5.1,0,0,1,3.61,1.63,8.91,8.91,0,0,1,2.43,6,9.41,9.41,0,0,1-2.92,6.49,6.79,6.79,0,0,1-4.34,2.08A5.07,5.07,0,0,1,98.82,45.74Zm8.33-4.45a10.06,10.06,0,0,0-2-5.83,5,5,0,0,0-3.72-2.22c-1.94,0-2.67,1.74-2.67,3.79a10.74,10.74,0,0,0,2.33,6.46,4.54,4.54,0,0,0,3.3,1.91C106.25,45.4,107.16,43.55,107.16,41.3Z" transform="translate(-1.18)"/><path d="M110.88,46.44l2.29-.28a84.4,84.4,0,0,0,.42-10,83.64,83.64,0,0,0-.38-10.21c-.17-1.08-.49-2.08-1.46-2.08a2.74,2.74,0,0,0-1.08.28,2,2,0,0,1-.24-.8,20.81,20.81,0,0,1,4.45-.83c1.39,0,1.6.9,1.6,2.74,0,2-.24,4.51-.24,11a81.09,81.09,0,0,0,.38,10l2.36.28a1.76,1.76,0,0,1,0,.73c-1.32,0-2.6-.07-4-.07s-3.09,0-4,.07A1.75,1.75,0,0,1,110.88,46.44Zm14.2-10.56c-.35,0-.59-.21-.94-.59a2.65,2.65,0,0,0-1.84-1.11c-1,0-1.87,1-2.88,3,1.49,2.54,2.71,4.41,3.85,6,.9,1.25,1.7,2.29,2.5,2.29.45,0,.87-.38,1.29-.9a2.53,2.53,0,0,1,.63.59,15.18,15.18,0,0,1-1.53,1.42,3.4,3.4,0,0,1-2.22,1c-1.15,0-1.91-.87-2.88-2.22A51.54,51.54,0,0,1,117.27,39c.66-1.25,1.81-3.23,2.67-4.58,1.25-1.94,2.6-3,4.13-3a2.36,2.36,0,0,1,2.5,2.36C126.57,35,125.78,35.88,125.08,35.88Z" transform="translate(-1.18)"/><path d="M226.83,30.91a1.75,1.75,0,0,1-.73,0c0-1.22.07-3.4.07-4.69s0-2.4-.07-3.68a1.75,1.75,0,0,1,.73,0l.31,2.29c2.4.14,5.52.17,8,.17s5.63-.07,8-.17l.31-2.29a1.75,1.75,0,0,1,.73,0c0,1.29-.07,2.36-.07,3.68s0,3.47.07,4.69a1.75,1.75,0,0,1-.73,0l-.35-3.72a52.13,52.13,0,0,0-6.15-.66c-.21,2.54-.28,4.79-.28,9.45A85.76,85.76,0,0,0,237,46.12l3,.31a1.73,1.73,0,0,1,0,.73c-1.35,0-3.37-.07-4.76-.07s-3.75,0-5,.07a1.74,1.74,0,0,1,0-.73l3-.31c.24-2.67.35-5.52.35-10a89.79,89.79,0,0,0-.38-9.55,46.85,46.85,0,0,0-6,.59Z" transform="translate(-1.18)"/><path d="M254.86,47.17a1.73,1.73,0,0,1,0-.73l2.12-.28a36.06,36.06,0,0,0,.52-6.15,14.9,14.9,0,0,0-.59-4.72,2.69,2.69,0,0,0-2.64-1.94,5.1,5.1,0,0,0-3.4,1.6v1.25a81,81,0,0,0,.38,10l2.19.28a1.75,1.75,0,0,1,0,.73c-1.39,0-2.12-.07-3.54-.07s-2.88,0-4.31.07a1.74,1.74,0,0,1,0-.73l2.29-.24a85.13,85.13,0,0,0,.42-10.07,76.59,76.59,0,0,0-.38-10.21c-.21-1.15-.49-2.08-1.46-2.08a2.75,2.75,0,0,0-1.08.28,2,2,0,0,1-.24-.8,20.82,20.82,0,0,1,4.45-.83c1.39,0,1.6.9,1.6,2.74s-.17,3.79-.24,8.33c2-1.08,4.62-2.15,6.18-2.15s3.13,1,3.13,3.47c0,1.7,0,4,0,5.38a49.6,49.6,0,0,0,.28,5.9l2.43.28a1.76,1.76,0,0,1,0,.73c-1.39,0-2.26-.07-3.68-.07S256.29,47.13,254.86,47.17Z" transform="translate(-1.18)"/><path d="M276.43,44.08c-2,2.29-4,3.4-5.76,3.4a5.1,5.1,0,0,1-3.82-1.91,11.07,11.07,0,0,1-2.71-7,6.51,6.51,0,0,1,2.64-5.35,8.69,8.69,0,0,1,4.83-2,4.06,4.06,0,0,1,3.85,4.24c0,2.22-1.74,3.37-8.37,3.4a11.38,11.38,0,0,0,2.36,4.86,4.49,4.49,0,0,0,3.16,1.7c1,0,2-.49,3.37-1.84A1.21,1.21,0,0,1,276.43,44.08Zm-9.58-7.36a9.25,9.25,0,0,0,.1,1.39c5-.28,5.83-.76,5.83-1.74a3.75,3.75,0,0,0-3.4-3.44C267.51,32.93,266.85,34.8,266.85,36.71Z" transform="translate(-1.18)"/><path d="M296.06,35.95a6.54,6.54,0,0,1,4.76,3.3,17.51,17.51,0,0,1,1.39,5.24c.52,3,1,5.73,4.06,7.22a1.28,1.28,0,0,1-.28.63c-3.16-1.11-4.76-4.06-6.29-7.33a34.21,34.21,0,0,0-3.33-6.15,5,5,0,0,0-4.17-2.36,4.86,4.86,0,0,0-1.49.21c0,4,.1,7.12.35,9.41l2.88.31a1.76,1.76,0,0,1,0,.73c-1.25,0-3.4-.07-4.65-.07s-3.47,0-4.62.07a1.74,1.74,0,0,1,0-.73l2.67-.31a85.53,85.53,0,0,0,.38-9.55,90.36,90.36,0,0,0-.45-10.8l-2.64-.35a1.73,1.73,0,0,1,0-.73c.21,0,4.51.1,4.79.1a15.93,15.93,0,0,1,4.51-.63,10.39,10.39,0,0,1,5.83,1.49,5.28,5.28,0,0,1,2.5,4.27c0,1.84-1.11,3.47-3.12,4.69a11.15,11.15,0,0,1-3.06,1.25Zm1.25-2a5.26,5.26,0,0,0,1.32-3.61,4.76,4.76,0,0,0-1.49-3.65A5.92,5.92,0,0,0,293,25.25a6.16,6.16,0,0,0-2,.28c-.17,2-.28,5.28-.31,9.62a5.37,5.37,0,0,0,2.15.35A5.81,5.81,0,0,0,297.31,33.9Z" transform="translate(-1.18)"/><path d="M305.54,42.89a3.37,3.37,0,0,1,1.77-3.09,16.5,16.5,0,0,1,6.32-1.91c0-2.85-.94-4.86-3.23-4.86a5.83,5.83,0,0,0-3.09,1.11,1.6,1.6,0,0,1-.59-1.11,17.6,17.6,0,0,1,6.67-1.81c2.22,0,3,1.63,3,3.68,0,1.29,0,3.16,0,4.41a36.3,36.3,0,0,0,.24,4.55c.14.94.35,1.29.83,1.29s1-.38,1.49-1a1.62,1.62,0,0,1,.56.52c-1.46,1.53-3.23,2.81-4.24,2.81s-1.53-1.15-1.53-3.13l-.07,0c-1.32,1.84-3.26,3.16-4.72,3.16C307,47.48,305.54,45.22,305.54,42.89Zm7.64.17a12.36,12.36,0,0,0,.45-3.89c-2.88,0-5.24.35-5.24,2.71,0,1.53,1,3.65,2.36,3.65C311.83,45.53,312.8,44.21,313.19,43.07Z" transform="translate(-1.18)"/><path d="M332.84,42.93c-1.63,3-3.86,4.58-6,4.58-2,0-2.74-1.67-3.23-4.1-.35-1.74-.76-6.11-1.7-8.47-.49-1.22-1-1.77-1.63-1.77a1.82,1.82,0,0,0-.9.35,1.52,1.52,0,0,1-.35-.8,15.94,15.94,0,0,1,4.38-1.32c.94,0,1.21.87,1.56,2.47.49,2.22.76,4.93,1.29,7.68.38,2.12.94,3.92,2.4,3.92,1.63,0,3.65-2.43,3.65-6.08a8.71,8.71,0,0,0-1-4.1A2.36,2.36,0,0,0,329.54,34a1.43,1.43,0,0,0-1.11.59,1.67,1.67,0,0,1-.56-.63c1.77-1.39,3.37-2.5,4.1-2.5a1,1,0,0,1,.69.28c1.11.9,1.77,2.92,1.77,5.07A12.89,12.89,0,0,1,332.84,42.93Z" transform="translate(-1.18)"/><path d="M349.17,44.08c-2,2.29-4,3.4-5.76,3.4a5.1,5.1,0,0,1-3.82-1.91,11.07,11.07,0,0,1-2.71-7,6.51,6.51,0,0,1,2.64-5.35,8.69,8.69,0,0,1,4.83-2,4.06,4.06,0,0,1,3.85,4.24c0,2.22-1.74,3.37-8.37,3.4a11.38,11.38,0,0,0,2.36,4.86,4.49,4.49,0,0,0,3.16,1.7c1,0,2-.49,3.37-1.84A1.21,1.21,0,0,1,349.17,44.08Zm-9.58-7.36a9.25,9.25,0,0,0,.1,1.39c5-.28,5.83-.76,5.83-1.74a3.75,3.75,0,0,0-3.4-3.44C340.25,32.93,339.58,34.8,339.58,36.71Z" transform="translate(-1.18)"/><path d="M367.93,46.44a1.78,1.78,0,0,1,0,.73c-1.39,0-2.26-.07-3.68-.07s-2.81,0-4.24.07a1.74,1.74,0,0,1,0-.73l2.12-.28a36.08,36.08,0,0,0,.52-6.15,14.9,14.9,0,0,0-.59-4.72,2.69,2.69,0,0,0-2.64-1.94,4.78,4.78,0,0,0-3.16,1.39c-.07,1.67-.24,4.1-.24,5.77,0,1.08.1,4.38.24,5.66l2.29.28a1.75,1.75,0,0,1,0,.73c-1.39,0-2.22-.07-3.65-.07s-2.85,0-4.27.07a1.74,1.74,0,0,1,0-.73l2.29-.28a37.67,37.67,0,0,0,.49-5.9,38.57,38.57,0,0,0-.35-5.56c-.17-1-.49-1.94-1.46-1.94a2.77,2.77,0,0,0-1.08.31,2.46,2.46,0,0,1-.28-.8,19.77,19.77,0,0,1,4.41-.87c1.29,0,1.6.8,1.67,2,2-1,4.45-2,5.94-2s3.13,1,3.13,3.47c0,1.7,0,4,0,5.38a49.37,49.37,0,0,0,.28,5.9Z" transform="translate(-1.18)"/></g></g></svg>
